<svg id="37881be1-f5ef-4e43-84c6-303486128970" data-name="Layer 1" xmlns="http://www.w3.org/2000/svg" viewBox="0 0 100 100"><title>14red</title><path d="M52.5,33.59C61,33.91,68.42,39.73,75,49.26" style="fill:none;stroke:#2591d0;stroke-linecap:round;stroke-miterlimit:10;stroke-width:3px"/><path d="M52.5,66.41c22.5,0,22.79-32.82,45-32.82" style="fill:none;stroke:#2591d0;stroke-linecap:round;stroke-miterlimit:10;stroke-width:3px"/><path d="M97.5,66.41c-7.14-.83-13.53-4.32-18.84-11.7" style="fill:none;stroke:#2591d0;stroke-linecap:round;stroke-miterlimit:10;stroke-width:3px"/><line x1="84.12" y1="39.81" x2="84.12" y2="51.54" style="fill:none;stroke:#2591d0;stroke-linecap:round;stroke-miterlimit:10;stroke-width:3px"/><line x1="92.84" y1="35" x2="92.94" y2="58.48" style="fill:none;stroke:#2591d0;stroke-linecap:round;stroke-miterlimit:10;stroke-width:3px"/><line x1="65.68" y1="60.6" x2="65.57" y2="46.74" style="fill:none;stroke:#2591d0;stroke-linecap:round;stroke-miterlimit:10;stroke-width:3px"/><line x1="56.96" y1="65.59" x2="56.86" y2="42.12" style="fill:none;stroke:#2591d0;stroke-linecap:round;stroke-miterlimit:10;stroke-width:3px"/><path d="M24.1,69.37l15.46,0c2.17,0,3.49-2.08,2.36-3.69L26,43V30.63h-7.2V43L2.91,65.66c-1.13,1.61.19,3.69,2.36,3.69l15.46,0H24.1Z" style="fill:none;stroke:#2591d0;stroke-linecap:round;stroke-linejoin:round;stroke-width:3px"/><line x1="15.23" y1="30.63" x2="29.6" y2="30.63" style="fill:none;stroke:#2591d0;stroke-linecap:round;stroke-linejoin:round;stroke-width:3px"/><line x1="10.25" y1="56.95" x2="35.37" y2="56.95" style="fill:none;stroke:#2591d0;stroke-linecap:round;stroke-linejoin:round;stroke-width:3px"/></svg>