<svg id="eededd3f-89cc-4017-9131-b079811e6fad" data-name="Layer 1" xmlns="http://www.w3.org/2000/svg" viewBox="0 0 100 100"><title>14red</title><path d="M97.5,38.61c0,13.73-19.3,15.62-23.75,0-3.95,13.65-19.3,15.62-23.75,0-3.95,13.65-19.3,15.62-23.75,0C22.3,52.26,2.88,54.37,2.5,38.61" style="fill:none;stroke:#2591d0;stroke-linecap:round;stroke-linejoin:round;stroke-width:3px"/><line x1="2.5" y1="38.61" x2="97.21" y2="38.61" style="fill:none;stroke:#2591d0;stroke-linecap:round;stroke-linejoin:round;stroke-width:3px"/><path d="M88,3.35H12a.86.86,0,0,0-.83.65L2.5,38.61h95L88.82,4A.86.86,0,0,0,88,3.35Z" style="fill:none;stroke:#2591d0;stroke-linecap:round;stroke-linejoin:round;stroke-width:3px"/><line x1="29.31" y1="3.81" x2="26.25" y2="38.61" style="fill:none;stroke:#2591d0;stroke-linecap:round;stroke-linejoin:round;stroke-width:3px"/><line x1="50.05" y1="3.92" x2="50" y2="38.61" style="fill:none;stroke:#2591d0;stroke-linecap:round;stroke-linejoin:round;stroke-width:3px"/><line x1="70.8" y1="3.92" x2="73.75" y2="38.61" style="fill:none;stroke:#2591d0;stroke-linecap:round;stroke-linejoin:round;stroke-width:3px"/><path d="M91.25,48.88V95.8a.86.86,0,0,1-.86.86H9.6a.86.86,0,0,1-.86-.86V48.88" style="fill:none;stroke:#2591d0;stroke-linecap:round;stroke-linejoin:round;stroke-width:3px"/><g id="dcc3b29f-422d-4085-8711-522b45a238b6" data-name="GiqOnW.tif"><path d="M82.59,59.2c-.58,1.33-1.11,2.69-1.74,4a21.94,21.94,0,0,1-4.57,6.58c.64.78,1.29,1.52,1.88,2.31a32.19,32.19,0,0,1,4.18,7.66c.08.19.17.38.26.57Z" style="fill:#fff"/><path d="M28.66,71.45a1.38,1.38,0,1,0,1.41-1.36A1.36,1.36,0,0,0,28.66,71.45Z" style="fill:#2591d0"/><path d="M82.59,65.22c-.58,1.06-1.11,2.14-1.74,3.18a18,18,0,0,1-4.57,5.23c.64.62,1.29,1.21,1.88,1.84a24.58,24.58,0,0,1,4.18,6.09c.08.15.17.3.26.46s0,.4,0,.61a1.58,1.58,0,0,1-1.77.34c-4.57-1.29-9-2.8-12.69-5.42a52.85,52.85,0,0,1-11.84,4.87c.62,1.65,1.24,3.27,1.83,4.9a.82.82,0,0,1-.26,1.08,1.46,1.46,0,0,1-1.37.05,56.05,56.05,0,0,1-9.59-4,1.3,1.3,0,0,0-.63-.16c-.93,0-1.86.12-2.79.17a35.16,35.16,0,0,1-15.34-2.54,26.34,26.34,0,0,1-9.63-6.37,2.49,2.49,0,0,1-.1-3.79,24,24,0,0,1,8.73-6.2,36,36,0,0,1,14.94-2.87,2.09,2.09,0,0,0,1-.21,53.45,53.45,0,0,1,10.59-4.54,1.15,1.15,0,0,1,1.22.11,1,1,0,0,1,.29.91c-.55,1.58-1.18,3.15-1.79,4.72-.05.14-.11.27-.18.44A59.8,59.8,0,0,1,68,69.74c.46-.31.86-.61,1.29-.88a44.94,44.94,0,0,1,11.86-4.71,1.29,1.29,0,0,1,1.4.46Q82.59,64.92,82.59,65.22Z" style="fill:none;stroke:#2591d0;stroke-miterlimit:10;stroke-width:3px"/><path d="M31.16,64.1c10.78,0,10.78,19,0,19" style="fill:none;stroke:#2591d0;stroke-miterlimit:10;stroke-width:3px"/></g></svg>