<svg id="877a93a9-a327-45c8-9187-a925b27ce7c7" data-name="Layer 1" xmlns="http://www.w3.org/2000/svg" viewBox="0 0 100 100"><title>14red</title><circle cx="84.01" cy="23.7" r="7.28" style="fill:none;stroke:#2591d0;stroke-linecap:round;stroke-linejoin:round;stroke-width:3px"/><path d="M97.5,78.42c-2.39,6.41-11.68,7.33-14.37,0-2.39,6.41-11.68,7.33-14.37,0-2.39,6.41-11.68,7.33-14.37,0C52,84.83,42.72,85.75,40,78.42c-2.39,6.41-11.68,7.33-14.37,0-2.39,6.41-11.68,7.33-14.37,0" style="fill:none;stroke:#2591d0;stroke-linecap:round;stroke-linejoin:round;stroke-width:3px"/><path d="M15.81,82.18c0-23.51,78.63-23.51,78.63,0" style="fill:none;stroke:#2591d0;stroke-linecap:round;stroke-linejoin:round;stroke-width:3px"/><path d="M37,65.78C37,58.36,30.32,44.67,20.16,38" style="fill:none;stroke:#2591d0;stroke-linecap:round;stroke-linejoin:round;stroke-width:3px"/><path d="M18.48,37.37c-6.68,2.11-9.64,8.12-8.63,18" style="fill:none;stroke:#2591d0;stroke-linecap:round;stroke-linejoin:round;stroke-width:3px"/><path d="M39.82,35.18q-8.85-6.33-19,.7" style="fill:none;stroke:#2591d0;stroke-linecap:round;stroke-linejoin:round;stroke-width:3px"/><path d="M32.8,23.7C20.47,24.83,17.53,30.19,20.16,38" style="fill:none;stroke:#2591d0;stroke-linecap:round;stroke-linejoin:round;stroke-width:3px"/><path d="M2.5,43.78C7.92,31.85,11.33,34,20.16,38" style="fill:none;stroke:#2591d0;stroke-linecap:round;stroke-linejoin:round;stroke-width:3px"/><path d="M81.7,66.48c0,7.85-34.9,7.85-34.9,0V46.92c0,5.58,34.9,5.58,34.9,0Z" style="fill:#fff;stroke:#2591d0;stroke-linecap:round;stroke-linejoin:round;stroke-width:3px"/><polyline points="60.37 72.08 60.37 63.67 67.97 63.67 67.97 72.08" style="fill:none;stroke:#2591d0;stroke-linecap:round;stroke-linejoin:round;stroke-width:3px"/><polyline points="84.01 47.49 64.25 38.34 64.09 38.34 44.33 47.49" style="fill:none;stroke:#2591d0;stroke-linecap:round;stroke-linejoin:round;stroke-width:3px"/></svg>