<svg id="8817f6d0-5ed4-4bfa-9f74-33fbd89d7e8b" data-name="Layer 1" xmlns="http://www.w3.org/2000/svg" viewBox="0 0 100 100"><title>14red</title><path d="M97.25,50.55c-3.14,8.43-15.36,9.64-18.9,0-3.14,8.43-15.36,9.64-18.9,0-3.14,8.43-15.36,9.64-18.9,0-3.14,8.43-15.36,9.64-18.9,0-3.14,8.43-15.36,9.64-18.9,0" style="fill:none;stroke:#2591d0;stroke-linecap:round;stroke-linejoin:round;stroke-width:3px"/><path d="M31.8,61.71c-4.07,1.73-4.72,5.77-6,9.25-.53,1.39.67,2.55,2.07,3.24C34.75,77.59,41.63,81,48.55,84.39c2.24,1.09,3.71.55,4.88-1.65.71-1.32,1.34-2.69,2-4,1.84-3.74.88-3.55.6-5,3.3-1.51,6.44-7.55,6-11.49l-.13-.37c3.3-1.51,6.44-7.55,6-11.49l-.25-.13c5-2.82,6.92-9.47,4.31-13.23a16.11,16.11,0,0,0-2.8-3.23c-1.31-1.09-1.3-2.13-.5-3.44.44-.72.76-1.51,1.13-2.27l.12-.25c3.67.12,5.4-6.92,4-7.48-3.49-1.62-6.85-3.5-10.36-5.08-2.82-1.27-5.95,7-3.87,7.84a16.57,16.57,0,0,0-1,2C58.1,26.81,57,27.47,55.21,27a14.41,14.41,0,0,0-4.34-.15,5.82,5.82,0,0,0-5.52,3.59c-1.18,2.48-2.91,4.81-2,7.82l16.41,8.09c-4.54-2.87-9.54-4.84-14.26-7.37-1.43-.77-2.89-.75-3.87.33-2.28,2.51-4,5.35-4.16,8.92A2.7,2.7,0,0,0,39.29,51c4.94,2.29,9.64,5.08,14.77,7l-.12.25c-4.54-2.87-9.54-4.84-14.26-7.37-1.43-.77-2.89-.75-3.87.33-2.28,2.51-4,5.35-4.16,8.92a2.7,2.7,0,0,0,1.79,2.76c4.94,2.29,9.64,5.08,14.77,7" style="fill:#fff;stroke:#2591d0;stroke-linecap:round;stroke-linejoin:round;stroke-width:3px"/><line x1="59.66" y1="23.04" x2="69.88" y2="27.76" style="fill:#fff;stroke:#2591d0;stroke-linecap:round;stroke-linejoin:round;stroke-width:3px"/></svg>