<svg id="ec927daa-2c7f-4d77-a880-18e5157ad021" data-name="Layer 1" xmlns="http://www.w3.org/2000/svg" viewBox="0 0 100 100"><title>14red</title><path d="M43.31,67.2,41.9,68.33c1.84,1.94,3.52,3.79,5.28,5.57,2,2,4,4,6,5.91a8.08,8.08,0,0,0,11.93-.35,9.48,9.48,0,0,0,1.47-2.72,1.15,1.15,0,0,1,1.24-.89c7.8,0,15.61,0,23.41,0a6.06,6.06,0,0,1,5.83,4,5.7,5.7,0,0,1-1.86,6.65A10.91,10.91,0,0,1,92,87.91a5.59,5.59,0,0,1-1.73.08c-13.37,0-26.74,0-40.1,0a8.66,8.66,0,0,1-5.54-1.92c-5.91-4.52-11.88-9-17.82-13.46-2.8-2.11-5.57-4.27-8.4-6.34a3.46,3.46,0,0,0-1.88-.63q-6.37-.08-12.75,0c-1,0-1.31-.29-1.3-1.31q.07-9,0-18.08c0-1,.28-1.4,1.37-1.39,10.89,0,21.79,0,32.68.05a2.69,2.69,0,0,1,1.69.7Q50.56,57.54,62.81,69.52c2.71,2.64,2.94,6.06.62,8.67a5.75,5.75,0,0,1-8.2.5c-3.67-3.42-7.22-7-10.82-10.47C44,67.84,43.63,67.5,43.31,67.2Z" style="fill:none;stroke:#2591d0;stroke-miterlimit:10;stroke-width:3px"/><circle cx="65.21" cy="30.32" r="18.34" style="fill:none;stroke:#2591d0;stroke-miterlimit:10;stroke-width:3px"/><path d="M58.33,35.68A40,40,0,0,0,63,36.78a8.08,8.08,0,0,0,3.37-.32,1.77,1.77,0,0,0,.46-3.28A15.35,15.35,0,0,0,64,31.85a32.57,32.57,0,0,1-3.92-1.74,5,5,0,0,1,0-8.81,13.81,13.81,0,0,1,2.72-1.12c.45-.16.69-.34.67-.86,0-.73,0-1.47,0-2.37,1,0,1.92,0,2.86,0,.14,0,.35.39.38.62.11.71-.09,1.65.3,2.08s1.32.21,2,.36c.95.21,1.88.48,2.87.74C71.62,22,71.35,23,71.07,24c0,.12-.12.22,0,.09-2-.24-3.82-.52-5.67-.67a3.22,3.22,0,0,0-1.64.41,1.5,1.5,0,0,0-.23,2.66,17.21,17.21,0,0,0,2.8,1.41c1.25.56,2.59.95,3.77,1.62a5.41,5.41,0,0,1,.16,9.5,13.25,13.25,0,0,1-2.9,1.18c-.47.16-.69.33-.67.85,0,.67,0,1.34,0,2,0,.48-.18.69-.68.67-.83,0-1.65,0-2.63,0,0-.78,0-1.5,0-2.21s-.21-.94-.95-1c-1.47-.22-2.92-.61-4.37-1-.5-.12-.71-.39-.51-1C57.87,37.54,58.09,36.55,58.33,35.68Z" style="fill:#2591d0"/></svg>