<svg id="5f26468b-fd1b-48ee-adb5-caa68b9a2029" data-name="Layer 1" xmlns="http://www.w3.org/2000/svg" viewBox="0 0 100 100"><title>14red</title><circle cx="50" cy="50" r="45" style="fill:#fff;stroke:#2591d0;stroke-linecap:round;stroke-linejoin:round;stroke-width:8px"/><path d="M17.83,18.53,81.47,82.17Z" style="fill:none;stroke:#2591d0;stroke-linecap:round;stroke-linejoin:round;stroke-width:8px"/><path d="M42.81,74.09c0,5.69-5.15,18.29-11.49,18.29S19.82,79.78,19.82,74.09,25,63.79,31.32,63.79,42.81,68.4,42.81,74.09Z" style="fill:none;stroke:#2591d0;stroke-miterlimit:10;stroke-width:3px"/><path d="M19.88,75.23q11.46,8.21,22.93,0" style="fill:none;stroke:#2591d0;stroke-miterlimit:10;stroke-width:3px"/><line x1="31.32" y1="63.79" x2="31.32" y2="59.33" style="fill:none;stroke:#2591d0;stroke-miterlimit:10;stroke-width:3px"/><path d="M53.91,36.1c.73.3,1.61.25,1.5,1.61-.06.76.83,1.51,1.91,1.53a21.49,21.49,0,0,1,2.57.28A1.88,1.88,0,0,0,62.22,38c.15-.55.39-.81,1-.76,1.29.1,1.85-.71,1.9-1.81a5.3,5.3,0,0,1,.85-2.07,7,7,0,0,0-1.74-7.74,6.9,6.9,0,0,0-8.3-.75A6.6,6.6,0,0,0,53,32.67c.41,1.11-.36,2.48.77,3.42" style="fill:none;stroke:#2591d0;stroke-linecap:round;stroke-linejoin:round;stroke-width:2px"/><path d="M53.61,36.22l-3.67,3.06" style="fill:none;stroke:#2591d0;stroke-linecap:round;stroke-linejoin:round;stroke-width:2px"/><path d="M64.19,37.4l2.9,3.8" style="fill:none;stroke:#2591d0;stroke-linecap:round;stroke-linejoin:round;stroke-width:2px"/><path d="M52,22.29l2.66,3.34" style="fill:none;stroke:#2591d0;stroke-linecap:round;stroke-linejoin:round;stroke-width:2px"/><path d="M68.85,24.18l-3.34,2.66" style="fill:none;stroke:#2591d0;stroke-linecap:round;stroke-linejoin:round;stroke-width:2px"/><path d="M58.69,31.55a1.58,1.58,0,1,1-1.43-1.73A1.56,1.56,0,0,1,58.69,31.55Z" style="fill:#2591d0"/><path d="M63.39,32.08A1.58,1.58,0,1,1,62,30.35,1.56,1.56,0,0,1,63.39,32.08Z" style="fill:#2591d0"/><rect x="58.07" y="34.14" width="2.04" height="1.72" rx="0.86" ry="0.86" transform="translate(4.26 -6.36) rotate(6.39)" style="fill:#2591d0"/><circle cx="69.49" cy="22.53" r="1.26" transform="translate(39.36 89.07) rotate(-83.61)" style="fill:#2591d0"/><circle cx="70.6" cy="23.92" r="1.26" transform="translate(38.97 91.42) rotate(-83.61)" style="fill:#2591d0"/><circle cx="48.2" cy="39.53" r="1.26" transform="matrix(0.11, -0.99, 0.99, 0.11, 3.55, 83.02)" style="fill:#2591d0"/><circle cx="49.31" cy="40.92" r="1.26" transform="translate(3.15 85.37) rotate(-83.61)" style="fill:#2591d0"/><circle cx="67.28" cy="42.79" r="1.26" transform="translate(17.27 104.89) rotate(-83.61)" style="fill:#2591d0"/><circle cx="68.68" cy="41.67" r="1.26" transform="translate(19.62 105.28) rotate(-83.61)" style="fill:#2591d0"/><circle cx="50.56" cy="21.84" r="1.26" transform="translate(23.22 69.66) rotate(-83.61)" style="fill:#2591d0"/><circle cx="51.96" cy="20.73" r="1.26" transform="translate(25.57 70.06) rotate(-83.61)" style="fill:#2591d0"/><g id="28908d20-41ea-4fbd-b5d8-a7d89a6ed80f" data-name="W1R92L.tif"><path d="M31.83,45.61a4,4,0,0,0,1.11-.12A28.46,28.46,0,0,1,42,43.82,32.62,32.62,0,0,1,52.9,44.87c5,1.38,9.91,3,15.15,3.22a50.12,50.12,0,0,0,7.64,0,30,30,0,0,0,8.24-2.15c2-.83,2-.85,2-3,0-.71.09-1.42.09-2.14q0-3.51,0-7c0-5.05,0-10.11-.17-15.16-.06-1.36-.34-1.43-.34-1.43a3.44,3.44,0,0,0-2.43.54,27.6,27.6,0,0,1-13,2.08,29.21,29.21,0,0,1-9.56-2.53,56.32,56.32,0,0,0-10-3.64A18.94,18.94,0,0,0,46.38,13a59.16,59.16,0,0,0-7.73.22,20.15,20.15,0,0,0-6.33,1.48,1.39,1.39,0,0,0-.91,1.45c0,9.3-.05,18.59.05,27.88,0,2.55-.11,14.6-.14,15.25" style="fill:none;stroke:#2591d0;stroke-linecap:round;stroke-linejoin:round;stroke-width:3px"/></g></svg>