<svg id="514268b8-15e3-41e8-9948-097a52b708d6" data-name="Layer 1" xmlns="http://www.w3.org/2000/svg" viewBox="0 0 100 100"><title>14red</title><path d="M55.23,86.34H45.37v-76a5,5,0,1,1,9.86,0Z" style="fill:none;stroke:#2591d0;stroke-linecap:round;stroke-linejoin:round;stroke-width:3px"/><line x1="78.76" y1="26.42" x2="78.76" y2="34.77" style="fill:none;stroke:#2591d0;stroke-linecap:round;stroke-linejoin:round;stroke-width:3px"/><line x1="21.15" y1="26.42" x2="21.15" y2="34.77" style="fill:none;stroke:#2591d0;stroke-linecap:round;stroke-linejoin:round;stroke-width:3px"/><line x1="21.12" y1="34.75" x2="6.66" y2="67.37" style="fill:none;stroke:#2591d0;stroke-linecap:round;stroke-linejoin:round;stroke-width:3px"/><line x1="21.37" y1="34.75" x2="35.83" y2="67.37" style="fill:none;stroke:#2591d0;stroke-linecap:round;stroke-linejoin:round;stroke-width:3px"/><line x1="78.69" y1="34.75" x2="64.23" y2="67.37" style="fill:none;stroke:#2591d0;stroke-linecap:round;stroke-linejoin:round;stroke-width:3px"/><line x1="78.82" y1="34.75" x2="93.28" y2="67.37" style="fill:none;stroke:#2591d0;stroke-linecap:round;stroke-linejoin:round;stroke-width:3px"/><line x1="6.66" y1="67.37" x2="35.83" y2="67.37" style="fill:none;stroke:#2591d0;stroke-linecap:round;stroke-linejoin:round;stroke-width:3px"/><path d="M6.66,67.37c0,13.26,29.17,13.26,29.17,0" style="fill:none;stroke:#2591d0;stroke-linecap:round;stroke-linejoin:round;stroke-width:3px"/><path d="M64.17,67.37c0,13.26,29.17,13.26,29.17,0" style="fill:none;stroke:#2591d0;stroke-linecap:round;stroke-linejoin:round;stroke-width:3px"/><line x1="64.62" y1="67.37" x2="93.21" y2="67.37" style="fill:none;stroke:#2591d0;stroke-linecap:round;stroke-linejoin:round;stroke-width:3px"/><path d="M32.4,93.83c0,1.56,35.45,1.56,35.45,0" style="fill:none;stroke:#2591d0;stroke-linecap:round;stroke-linejoin:round;stroke-width:3px"/><path d="M55.23,86.34c0,3.9,13.88.84,12.62,7.5" style="fill:none;stroke:#2591d0;stroke-linecap:round;stroke-linejoin:round;stroke-width:3px"/><path d="M45.1,86.34c0,3.9-13.88.84-12.62,7.5" style="fill:none;stroke:#2591d0;stroke-linecap:round;stroke-linejoin:round;stroke-width:3px"/><path d="M78.76,26.42H21.15V20a124.43,124.43,0,0,1,57.6,0Z" style="fill:none;stroke:#2591d0;stroke-linecap:round;stroke-linejoin:round;stroke-width:3px"/></svg>