<svg id="bc7bacd7-4208-469b-a15e-7972ca5cf819" data-name="Layer 1" xmlns="http://www.w3.org/2000/svg" xmlns:xlink="http://www.w3.org/1999/xlink" viewBox="0 0 100 100"><defs><clipPath id="691599ab-7dc3-4f21-9bb8-dfede74dccb2"><circle cx="50" cy="50" r="47.5" style="fill:none"/></clipPath></defs><title>14red</title><g style="clip-path:url(#691599ab-7dc3-4f21-9bb8-dfede74dccb2)"><g id="916decf9-cd81-41bb-8adc-3981fbda8b06" data-name="GiqOnW.tif"><path d="M65.5,99.45c-1.48-.64-3-1.23-4.42-1.93a24.3,24.3,0,0,1-7.29-5.06c-.86.71-1.69,1.43-2.56,2.08a35.64,35.64,0,0,1-8.48,4.62c-.22.08-.42.19-.64.29Z" style="fill:#fff"/><path d="M51.95,39.73a1.53,1.53,0,1,0,1.51,1.56A1.51,1.51,0,0,0,51.95,39.73Z" style="fill:#2591d0"/><path d="M58.84,99.45c-1.17-.64-2.36-1.23-3.52-1.93a19.94,19.94,0,0,1-5.79-5.06c-.69.71-1.34,1.43-2,2.08a27.21,27.21,0,0,1-6.74,4.62c-.17.08-.34.19-.51.29h-.67a1.75,1.75,0,0,1-.38-2c1.43-5.06,3.11-9.95,6-14.05a58.52,58.52,0,0,1-5.4-13.11c-1.83.68-3.62,1.37-5.42,2a.9.9,0,0,1-1.19-.29,1.62,1.62,0,0,1-.06-1.52,62.07,62.07,0,0,1,4.43-10.62,1.44,1.44,0,0,0,.17-.7c0-1-.13-2.06-.18-3.09a38.93,38.93,0,0,1,2.81-17,29.17,29.17,0,0,1,7-10.67c1.42-1.3,2.72-1.37,4.19-.11A26.54,26.54,0,0,1,58.46,38a39.83,39.83,0,0,1,3.18,16.55,2.31,2.31,0,0,0,.24,1.1,59.19,59.19,0,0,1,5,11.72,1.28,1.28,0,0,1-.13,1.36,1.16,1.16,0,0,1-1,.32c-1.75-.61-3.49-1.31-5.23-2l-.49-.2a66.21,66.21,0,0,1-6.22,16.43c.35.51.68,1,1,1.43A49.76,49.76,0,0,1,60,97.9a1.43,1.43,0,0,1-.51,1.55Z" style="fill:none;stroke:#2591d0;stroke-miterlimit:10;stroke-width:3px"/><path d="M60.08,42.5c0,11.94-21,11.94-21,0" style="fill:none;stroke:#2591d0;stroke-miterlimit:10;stroke-width:3px"/></g><path d="M56.32,19.53c0,10.9-12.45,9.36-12.45-1.74L44.25,6.1" style="fill:none;stroke:#2591d0;stroke-miterlimit:10;stroke-width:3px"/><circle cx="44.34" cy="3.74" r="2.45" style="fill:none;stroke:#2591d0;stroke-miterlimit:10;stroke-width:3px"/><polygon points="57.69 12.96 53.88 19.56 57.69 19.56 57.69 12.96" style="fill:#2591d0"/><line x1="44.34" y1="1.29" x2="44.34" y2="-31.35" style="fill:none;stroke:#2591d0;stroke-miterlimit:10;stroke-width:3px"/></g><circle cx="50" cy="50" r="45" style="fill:none;stroke:#2591d0;stroke-linecap:round;stroke-linejoin:round;stroke-width:8px"/><path d="M17.83,18.53,81.47,82.17Z" style="fill:none;stroke:#2591d0;stroke-linecap:round;stroke-linejoin:round;stroke-width:8px"/></svg>