<svg id="41bc1903-57d9-46ba-a6e9-27ed8b5cbbc5" data-name="Layer 1" xmlns="http://www.w3.org/2000/svg" viewBox="0 0 100 100"><title>14red</title><path d="M76.18,64.74l.88,1.1c1.51-1.43,2.95-2.74,4.33-4.11,1.56-1.54,3.07-3.12,4.59-4.7a6.28,6.28,0,0,0-.27-9.28,7.37,7.37,0,0,0-2.11-1.14.9.9,0,0,1-.69-1c0-6.07,0-12.13,0-18.2A4.71,4.71,0,0,1,86,22.91a4.43,4.43,0,0,1,5.17,1.45,8.48,8.48,0,0,1,1.09,2.51,4.35,4.35,0,0,1,.06,1.34c0,10.39,0,20.78,0,31.17a6.73,6.73,0,0,1-1.49,4.31c-3.51,4.6-7,9.23-10.46,13.85-1.64,2.18-3.32,4.33-4.93,6.53A2.69,2.69,0,0,0,75,85.54q-.06,5,0,9.91c0,.79-.23,1-1,1q-7-.06-14.06,0c-.81,0-1.09-.22-1.08-1.07,0-8.47,0-16.94,0-25.41a2.09,2.09,0,0,1,.55-1.31Q68.67,59.1,78,49.57c2-2.1,4.71-2.29,6.74-.48a4.47,4.47,0,0,1,.39,6.38c-2.66,2.85-5.42,5.61-8.14,8.41C76.68,64.18,76.41,64.49,76.18,64.74Z" style="fill:none;stroke:#2591d0;stroke-miterlimit:10;stroke-width:3px"/><path d="M22.69,66l1.22-1.16-2.82-2.9c-2-2.07-4-4.1-6-6.21a4.55,4.55,0,0,1,.48-6.89c1.86-1.54,4.55-1.21,6.48.77Q31.23,59,40.44,68.48a2.26,2.26,0,0,1,.71,1.73c0,8.35,0,16.7,0,25.05,0,1.19,0,1.19-1.2,1.19-4.63,0-9.25,0-13.88,0-.85,0-1.06-.26-1.05-1.07q.06-5,0-9.91a2.49,2.49,0,0,0-.47-1.38Q16.69,73.69,8.8,63.3A5.36,5.36,0,0,1,7.64,60c0-10.78,0-21.57,0-32.35,0-3.52,3.14-5.88,6.27-4.71A4.43,4.43,0,0,1,17,27c.12,1.76.06,3.54.07,5.31,0,4.42,0,8.83,0,13.25,0,.53-.05.88-.67,1.06a6.16,6.16,0,0,0-2.77,10C16.59,59.73,19.62,62.8,22.69,66Z" style="fill:none;stroke:#2591d0;stroke-miterlimit:10;stroke-width:3px"/><g id="7ad35791-24e5-43a4-b855-82d282f2385e" data-name="T6Mlw3.tif"><path d="M49.86,3.53a4.35,4.35,0,0,0-1.72,1.15C43.45,9.73,38.87,14.86,35.52,21c-1.56,2.84-3,5.78-2.82,9.06.33,7.47,3.91,14.17,11.68,17.13,6.22,2.37,12,.92,16.94-3.6a18.55,18.55,0,0,0,5.06-8.13c1.65-5.07.77-9.8-1.83-14.34A80.43,80.43,0,0,0,53.29,6.29c-1-1.06-1.77-2.37-3.32-2.76" style="fill:none;stroke:#2591d0;stroke-linecap:round;stroke-linejoin:round;stroke-width:3px"/><path d="M40.11,27.38a14.17,14.17,0,0,0,1.7,7.92,10.39,10.39,0,0,0,1.43,2.13A1.82,1.82,0,0,1,43.72,39" style="fill:none;stroke:#2591d0;stroke-linecap:round;stroke-linejoin:round;stroke-width:3px"/></g></svg>